<?xml version="1.0" encoding="utf-8"?>
<!-- Generator: Adobe Illustrator 18.0.0, SVG Export Plug-In . SVG Version: 6.00 Build 0)  -->
<!DOCTYPE svg PUBLIC "-//W3C//DTD SVG 1.1//EN" "http://www.w3.org/Graphics/SVG/1.1/DTD/svg11.dtd">
<svg version="1.1" id="Capa_1" xmlns="http://www.w3.org/2000/svg" xmlns:xlink="http://www.w3.org/1999/xlink" x="0px" y="0px"
	 viewBox="0 0 120 90" enable-background="new 0 0 120 90" xml:space="preserve">
<g>
	<path fill="#D2D3FD" d="M100,0L100,0H90c0,33.1-26.9,60-60,60c-10.9,0-21.2-3-30-8.1v11.2C9.1,67.5,19.3,70,30,70
		C68.6,70,100,38.6,100,0z"/>
	<path fill="#D2D3FD" d="M120,0L120,0h-10l0,0c0,44.1-35.9,80-80,80c-10.6,0-20.7-2.1-30-5.9v10.7C9.4,88.2,19.5,90,30,90l0,0
		C79.7,90,120,49.7,120,0z"/>
</g>
</svg>
