<?xml version="1.0" encoding="utf-8"?>
<!-- Generator: Adobe Illustrator 18.0.0, SVG Export Plug-In . SVG Version: 6.00 Build 0)  -->
<!DOCTYPE svg PUBLIC "-//W3C//DTD SVG 1.1//EN" "http://www.w3.org/Graphics/SVG/1.1/DTD/svg11.dtd">
<svg version="1.1" id="Capa_1" xmlns="http://www.w3.org/2000/svg" xmlns:xlink="http://www.w3.org/1999/xlink" x="0px" y="0px"
	 viewBox="0 0 120 90" enable-background="new 0 0 120 90" xml:space="preserve">
<g>
	<path fill="#D2D3FD" d="M30,20c-10.7,0-20.9,2.5-30,6.9v11.2C8.8,33,19.1,30,30,30c33.1,0,60,26.9,60,60h10v0
		C100,51.4,68.6,20,30,20z"/>
	<path fill="#D2D3FD" d="M30,0L30,0C19.5,0,9.4,1.8,0,5.2v10.7C9.3,12.1,19.4,10,30,10c44.1,0,80,35.9,80,80v0h10v0
		C120,40.3,79.7,0,30,0z"/>
</g>
</svg>
