<?xml version="1.0" encoding="utf-8"?>
<!-- Generator: Adobe Illustrator 18.0.0, SVG Export Plug-In . SVG Version: 6.00 Build 0)  -->
<!DOCTYPE svg PUBLIC "-//W3C//DTD SVG 1.1//EN" "http://www.w3.org/Graphics/SVG/1.1/DTD/svg11.dtd">
<svg version="1.1" id="Capa_1" xmlns="http://www.w3.org/2000/svg" xmlns:xlink="http://www.w3.org/1999/xlink" x="0px" y="0px"
	 viewBox="0 0 40 30" enable-background="new 0 0 40 30" xml:space="preserve">
<g>
	<path fill="#D2D3FD" d="M33.3,0L33.3,0H30c0,11.1-9,20-20,20c-3.6,0-7-1-10-2.7V21c3,1.5,6.4,2.3,10,2.3
		C22.9,23.3,33.3,12.8,33.3,0z"/>
	<path fill="#D2D3FD" d="M40,0L40,0h-3.4l0,0c0,14.7-11.9,26.6-26.6,26.6c-3.5,0-6.9-0.7-10-2v3.6c3.1,1.1,6.5,1.7,10,1.7l0,0
		C26.6,29.9,40,16.4,40,0z"/>
</g>
</svg>
