<?xml version="1.0" encoding="utf-8"?>
<!-- Generator: Adobe Illustrator 18.0.0, SVG Export Plug-In . SVG Version: 6.00 Build 0)  -->
<!DOCTYPE svg PUBLIC "-//W3C//DTD SVG 1.1//EN" "http://www.w3.org/Graphics/SVG/1.1/DTD/svg11.dtd">
<svg version="1.1" id="Capa_1" xmlns="http://www.w3.org/2000/svg" xmlns:xlink="http://www.w3.org/1999/xlink" x="0px" y="0px"
	 viewBox="0 0 8.5 8.5" enable-background="new 0 0 8.5 8.5" xml:space="preserve">
<g>
	<g>
		<path fill="#009FE3" d="M0.6,4.2C0.6,4.3,0.6,4.3,0.6,4.2l-0.5,0c0,0,0,0,0,0c0-1.8,1.1-3.3,2.7-3.8v0.5C1.6,1.4,0.6,2.7,0.6,4.2z
			"/>
	</g>
	<path fill="#009FE3" d="M2.9,4.3L2.9,4.3V0.4c0.4-0.1,0.9-0.2,1.4-0.2c2.2,0,4.1,1.8,4.1,4.1L2.9,4.3z"/>
	<path fill="#009FE3" d="M0.2,4.2C0.2,4.2,0.2,4.2,0.2,4.2c0,1.8,1.1,3.3,2.7,3.8V4.2L0.2,4.2z"/>
	<path fill="#009FE3" d="M8.3,4.2c0,2.2-1.8,4.1-4.1,4.1h0c-0.5,0-0.9-0.1-1.4-0.2V6.6C3.3,6.8,3.8,7,4.3,7C5.7,7,7,5.7,7,4.2
		L8.3,4.2L8.3,4.2z"/>
</g>
<g>
	<g>
		<path fill="#009FE3" stroke="#312783" stroke-width="3" stroke-miterlimit="10" d="M470.7,74.9C470.7,74.9,470.7,74.9,470.7,74.9
			l-5.3,0c0,0,0,0,0,0c0-20.8,13.3-38.5,31.9-45.1v5.7C481.7,41.8,470.7,57,470.7,74.9z"/>
	</g>
	<path fill="#009FE3" stroke="#312783" stroke-width="3" stroke-miterlimit="10" d="M497.3,74.9L497.3,74.9V29.8
		c5-1.8,10.4-2.7,15.9-2.7c26.4,0,47.8,21.4,47.8,47.8L497.3,74.9z"/>
	<path fill="#009FE3" stroke="#312783" stroke-width="3" stroke-miterlimit="10" d="M465.4,74.8C465.4,74.8,465.4,74.8,465.4,74.8
		c0,20.8,13.3,38.5,31.9,45.1V74.8L465.4,74.8z"/>
	<path fill="#009FE3" stroke="#312783" stroke-width="3" stroke-miterlimit="10" d="M561.1,74.9c0,26.4-21.4,47.8-47.8,47.8h0
		c-5.6,0-11-1-15.9-2.7v-17.5c4.7,2.7,10.1,4.3,15.9,4.3c17.6,0,31.9-14.3,31.9-31.9L561.1,74.9L561.1,74.9z"/>
</g>
</svg>
