<?xml version="1.0" encoding="utf-8"?>
<!-- Generator: Adobe Illustrator 18.0.0, SVG Export Plug-In . SVG Version: 6.00 Build 0)  -->
<!DOCTYPE svg PUBLIC "-//W3C//DTD SVG 1.1//EN" "http://www.w3.org/Graphics/SVG/1.1/DTD/svg11.dtd">
<svg version="1.1" id="Capa_1" xmlns="http://www.w3.org/2000/svg" xmlns:xlink="http://www.w3.org/1999/xlink" x="0px" y="0px"
	 viewBox="0 0 8.5 8.5" enable-background="new 0 0 8.5 8.5" xml:space="preserve">
<g>
	<g>
		<rect x="0.9" y="0.2" fill="#009FE3" width="0.5" height="4.1"/>
	</g>
	<g>
		<polygon fill="#009FE3" points="0.9,8.3 1.3,8.3 1.3,8.3 1.3,4.2 0.9,4.2 		"/>
	</g>
	<g>
		<polygon fill="#009FE3" points="1.8,8.3 2.2,8.3 2.2,8.3 2.2,4.2 1.8,4.2 		"/>
	</g>
	<path fill="#009FE3" d="M7.6,4.2c0-2.2-1.8-4.1-4.1-4.1h0c-0.5,0-0.9,0.1-1.4,0.2v1.5c0.4-0.2,0.9-0.4,1.4-0.4
		c1.5,0,2.7,1.2,2.7,2.7L7.6,4.2z"/>
	<g>
		<path fill="#009FE3" d="M6.3,4.2C6.3,5.7,5.1,7,3.6,7c-0.5,0-1-0.1-1.4-0.4v0.5c0.4,0.2,0.9,0.3,1.4,0.3c1.7,0,3.2-1.4,3.2-3.2
			c0,0,0,0,0,0C6.7,4.2,6.3,4.2,6.3,4.2z"/>
		<path fill="#009FE3" d="M7.2,4.2c0,2-1.6,3.6-3.6,3.6c-0.5,0-0.9-0.1-1.4-0.3v0.5c0.4,0.1,0.9,0.2,1.4,0.2c2.2,0,4.1-1.8,4.1-4.1
			C7.6,4.2,7.2,4.2,7.2,4.2z"/>
	</g>
</g>
</svg>
