<?xml version="1.0" encoding="utf-8"?>
<!-- Generator: Adobe Illustrator 18.0.0, SVG Export Plug-In . SVG Version: 6.00 Build 0)  -->
<!DOCTYPE svg PUBLIC "-//W3C//DTD SVG 1.1//EN" "http://www.w3.org/Graphics/SVG/1.1/DTD/svg11.dtd">
<svg version="1.1" id="Capa_1" xmlns="http://www.w3.org/2000/svg" xmlns:xlink="http://www.w3.org/1999/xlink" x="0px" y="0px"
	 viewBox="0 0 4.5 4.5" enable-background="new 0 0 4.5 4.5" xml:space="preserve">
<g>
	<path fill="#209DD9" d="M0.8,2.2v2.7C1.2,5,1.5,5,1.8,5c1.6,0.1,2.8-1.2,2.8-2.8H0.8z"/>
	<rect x="-0.1" y="-0.5" fill="#209DD9" width="1" height="2.8"/>
	<rect x="-0.1" y="2.2" fill="#209DD9" width="0.3" height="2.8"/>
	<rect x="0.5" y="2.2" fill="#209DD9" width="0.3" height="2.8"/>
	<path fill="#209DD9" d="M4.6,2.2c0-1.6-1.3-2.9-2.9-2.9l0,0c-0.3,0-0.6,0.1-1,0.2v1.1c0.2-0.1,0.6-0.2,1-0.2c1.1,0,1.9,0.9,1.9,1.9
		h1V2.2z"/>
</g>
</svg>
