<?xml version="1.0" encoding="utf-8"?>
<!-- Generator: Adobe Illustrator 18.0.0, SVG Export Plug-In . SVG Version: 6.00 Build 0)  -->
<!DOCTYPE svg PUBLIC "-//W3C//DTD SVG 1.1//EN" "http://www.w3.org/Graphics/SVG/1.1/DTD/svg11.dtd">
<svg version="1.1" id="Capa_1" xmlns="http://www.w3.org/2000/svg" xmlns:xlink="http://www.w3.org/1999/xlink" x="0px" y="0px"
	 viewBox="0 0 4.5 4.5" enable-background="new 0 0 4.5 4.5" xml:space="preserve">
<path fill="#229DD8" d="M5.1,2.2L5.1,2.2L5.1,2.2c0-1.6-1.4-2.8-2.8-2.8c-0.3,0-0.6,0-1,0.1C0.3,0-0.6,1-0.6,2.2S0.2,4.6,1.4,5
	c0.3,0,0.5,0.1,1,0.1C3.7,5.1,5.1,3.7,5.1,2.2L5.1,2.2L5.1,2.2z M1.4-0.1c0.3-0.1,0.5-0.1,1-0.1c1.4,0,2.6,1.1,2.6,2.6H4.6
	c0-1.2-1-2.1-2.1-2.1c-0.4,0-0.6,0-1,0.3v-0.6H1.4z M1.4,2.2v2.4c-1-0.4-1.7-1.3-1.7-2.4H0c0,1,0.5,1.6,1.2,2V3.8
	C0.6,3.5,0.4,3,0.4,2.2s0.3-1.3,1-1.6c0.3-0.3,0.5-0.3,1-0.3c1.1,0,1.9,0.9,1.9,1.9H1.4z"/>
</svg>
