<?xml version="1.0" encoding="utf-8"?>
<!-- Generator: Adobe Illustrator 18.0.0, SVG Export Plug-In . SVG Version: 6.00 Build 0)  -->
<!DOCTYPE svg PUBLIC "-//W3C//DTD SVG 1.1//EN" "http://www.w3.org/Graphics/SVG/1.1/DTD/svg11.dtd">
<svg version="1.1" id="Capa_1" xmlns="http://www.w3.org/2000/svg" xmlns:xlink="http://www.w3.org/1999/xlink" x="0px" y="0px"
	 viewBox="0 0 466 365.7" enable-background="new 0 0 466 365.7" xml:space="preserve">
<g>
	<g>
		<rect x="0" y="362.9" fill="#010202" width="466" height="2.8"/>
	</g>
	<g>
		<rect x="0" y="357.2" fill="#010202" width="466" height="2.8"/>
	</g>
	<g>
		<rect x="0" y="345.9" fill="#010202" width="466" height="2.8"/>
	</g>
	<g>
		<rect x="0" y="351.6" fill="#010202" width="466" height="2.8"/>
	</g>
	<g>
		<rect x="0" y="340.2" fill="#010202" width="466" height="2.8"/>
	</g>
	<g>
		<rect x="0" y="334.6" fill="#010202" width="466" height="2.8"/>
	</g>
	<g>
		<rect x="0" y="328.9" fill="#010202" width="466" height="2.8"/>
	</g>
	<g>
		<rect x="0" y="323.2" fill="#010202" width="466" height="2.8"/>
	</g>
	<g>
		<rect x="0" y="317.5" fill="#010202" width="466" height="2.8"/>
	</g>
	<g>
		<rect x="0" y="311.9" fill="#010202" width="466" height="2.8"/>
	</g>
	<g>
		<rect x="0" y="306.2" fill="#010202" width="466" height="2.8"/>
	</g>
	<g>
		<rect x="0" y="300.5" fill="#010202" width="466" height="2.8"/>
	</g>
	<g>
		<rect x="0" y="294.9" fill="#010202" width="466" height="2.8"/>
	</g>
	<g>
		<rect x="0" y="289.2" fill="#010202" width="466" height="2.8"/>
	</g>
	<g>
		<rect x="0" y="283.5" fill="#010202" width="466" height="2.8"/>
	</g>
	<g>
		<rect x="0" y="277.9" fill="#010202" width="466" height="2.8"/>
	</g>
	<g>
		<rect x="0" y="272.2" fill="#010202" width="466" height="2.8"/>
	</g>
	<g>
		<rect x="0" y="266.5" fill="#010202" width="466" height="2.8"/>
	</g>
	<g>
		<rect x="0" y="260.8" fill="#010202" width="466" height="2.8"/>
	</g>
	<g>
		<rect x="0" y="255.2" fill="#010202" width="466" height="2.8"/>
	</g>
	<g>
		<rect x="0" y="249.5" fill="#010202" width="466" height="2.8"/>
	</g>
	<g>
		<rect x="0" y="243.8" fill="#010202" width="466" height="2.8"/>
	</g>
	<g>
		<rect x="0" y="238.2" fill="#010202" width="466" height="2.8"/>
	</g>
	<g>
		<rect x="0" y="232.5" fill="#010202" width="466" height="2.8"/>
	</g>
	<g>
		<rect x="0" y="226.8" fill="#010202" width="466" height="2.8"/>
	</g>
	<g>
		<rect x="0" y="221.2" fill="#010202" width="466" height="2.8"/>
	</g>
	<g>
		<rect x="0" y="215.5" fill="#010202" width="466" height="2.8"/>
	</g>
	<g>
		<rect x="0" y="209.8" fill="#010202" width="466" height="2.8"/>
	</g>
	<g>
		<rect x="0" y="204.1" fill="#010202" width="466" height="2.8"/>
	</g>
	<g>
		<rect x="0" y="198.5" fill="#010202" width="466" height="2.8"/>
	</g>
	<g>
		<rect x="0" y="192.8" fill="#010202" width="466" height="2.8"/>
	</g>
	<g>
		<rect x="0" y="187.1" fill="#010202" width="466" height="2.8"/>
	</g>
	<g>
		<rect x="0" y="181.5" fill="#010202" width="466" height="2.8"/>
	</g>
	<g>
		<rect x="0" y="175.8" fill="#010202" width="466" height="2.8"/>
	</g>
	<g>
		<rect x="0" y="170.1" fill="#010202" width="466" height="2.8"/>
	</g>
	<g>
		<rect x="0" y="164.5" fill="#010202" width="466" height="2.8"/>
	</g>
	<g>
		<rect x="0" y="158.8" fill="#010202" width="466" height="2.8"/>
	</g>
	<g>
		<rect x="0" y="153.1" fill="#010202" width="466" height="2.8"/>
	</g>
	<g>
		<rect x="0" y="147.4" fill="#010202" width="466" height="2.8"/>
	</g>
	<g>
		<rect x="0" y="141.8" fill="#010202" width="466" height="2.8"/>
	</g>
	<g>
		<rect x="0" y="136.1" fill="#010202" width="466" height="2.8"/>
	</g>
	<g>
		<rect x="0" y="130.4" fill="#010202" width="466" height="2.8"/>
	</g>
	<g>
		<rect x="0" y="96.4" fill="#010202" width="466" height="2.8"/>
	</g>
	<g>
		<rect x="0" y="102.1" fill="#010202" width="466" height="2.8"/>
	</g>
	<g>
		<rect x="0" y="107.8" fill="#010202" width="466" height="2.8"/>
	</g>
	<g>
		<rect x="0" y="113.4" fill="#010202" width="466" height="2.8"/>
	</g>
	<g>
		<rect x="0" y="119.1" fill="#010202" width="466" height="2.8"/>
	</g>
	<g>
		<rect x="0" y="124.8" fill="#010202" width="466" height="2.8"/>
	</g>
	<g>
		<rect x="0" y="90.7" fill="#010202" width="466" height="2.8"/>
	</g>
	<g>
		<rect x="0" y="85.1" fill="#010202" width="466" height="2.8"/>
	</g>
	<g>
		<rect x="0" y="73.7" fill="#010202" width="466" height="2.8"/>
	</g>
	<g>
		<rect x="0" y="79.4" fill="#010202" width="466" height="2.8"/>
	</g>
	<g>
		<rect x="0" y="68.1" fill="#010202" width="466" height="2.8"/>
	</g>
	<g>
		<rect x="0" y="62.4" fill="#010202" width="466" height="2.8"/>
	</g>
	<g>
		<rect x="0" y="56.7" fill="#010202" width="466" height="2.8"/>
	</g>
	<g>
		<rect x="0" y="51.1" fill="#010202" width="466" height="2.8"/>
	</g>
	<g>
		<rect x="0" y="45.4" fill="#010202" width="466" height="2.8"/>
	</g>
	<g>
		<rect x="0" y="39.7" fill="#010202" width="466" height="2.8"/>
	</g>
	<g>
		<rect x="0" y="34.1" fill="#010202" width="466" height="2.8"/>
	</g>
	<g>
		<rect x="0" y="28.4" fill="#010202" width="466" height="2.8"/>
	</g>
	<g>
		<rect x="0" y="22.7" fill="#010202" width="466" height="2.8"/>
	</g>
	<g>
		<rect x="0" y="17" fill="#010202" width="466" height="2.8"/>
	</g>
	<g>
		<rect x="0" y="11.4" fill="#010202" width="466" height="2.8"/>
	</g>
	<g>
		<rect x="0" y="5.7" fill="#010202" width="466" height="2.8"/>
	</g>
	<g>
		<rect x="0" fill="#010202" width="466" height="2.8"/>
	</g>
</g>
</svg>
