<?xml version="1.0" encoding="utf-8"?>
<!-- Generator: Adobe Illustrator 18.0.0, SVG Export Plug-In . SVG Version: 6.00 Build 0)  -->
<!DOCTYPE svg PUBLIC "-//W3C//DTD SVG 1.1//EN" "http://www.w3.org/Graphics/SVG/1.1/DTD/svg11.dtd">
<svg version="1.1" id="Capa_1" xmlns="http://www.w3.org/2000/svg" xmlns:xlink="http://www.w3.org/1999/xlink" x="0px" y="0px"
	 viewBox="0 0 440.5 360.3" enable-background="new 0 0 440.5 360.3" xml:space="preserve">
<g>
	<g>
		
			<rect x="232.9" y="133.9" transform="matrix(-8.714948e-02 -0.9962 0.9962 -8.714948e-02 -84.868 603.9286)" fill="#010202" width="2.8" height="413.8"/>
	</g>
	<g>
		
			<rect x="232.5" y="128.9" transform="matrix(-8.714948e-02 -0.9962 0.9962 -8.714948e-02 -80.2312 598.0159)" fill="#010202" width="2.8" height="413.8"/>
	</g>
	<g>
		
			<rect x="231.6" y="118.7" transform="matrix(-8.714948e-02 -0.9962 0.9962 -8.714948e-02 -71.131 586.1735)" fill="#010202" width="2.8" height="413.9"/>
	</g>
	<g>
		
			<rect x="232" y="123.8" transform="matrix(-8.714948e-02 -0.9962 0.9962 -8.714948e-02 -75.7693 592.0864)" fill="#010202" width="2.8" height="413.9"/>
	</g>
	<g>
		
			<rect x="231.2" y="113.8" transform="matrix(-8.681007e-02 -0.9962 0.9962 -8.681007e-02 -66.7386 580.233)" fill="#010202" width="2.8" height="413.8"/>
	</g>
	<g>
		
			<rect x="230.7" y="108.8" transform="matrix(-8.681007e-02 -0.9962 0.9962 -8.681007e-02 -62.3079 574.3488)" fill="#010202" width="2.8" height="413.8"/>
	</g>
	<g>
		
			<rect x="230.3" y="103.8" transform="matrix(-8.681007e-02 -0.9962 0.9962 -8.681007e-02 -57.6695 568.4376)" fill="#010202" width="2.8" height="413.8"/>
	</g>
	<g>
		
			<rect x="229.8" y="98.7" transform="matrix(-8.714948e-02 -0.9962 0.9962 -8.714948e-02 -53.1395 562.6916)" fill="#010202" width="2.8" height="413.9"/>
	</g>
	<g>
		
			<rect x="229.5" y="93.8" transform="matrix(-8.714948e-02 -0.9962 0.9962 -8.714948e-02 -48.5625 556.8519)" fill="#010202" width="2.8" height="413.8"/>
	</g>
	<g>
		
			<rect x="229" y="88.7" transform="matrix(-8.714948e-02 -0.9962 0.9962 -8.714948e-02 -44.0413 550.8494)" fill="#010202" width="2.8" height="413.8"/>
	</g>
	<g>
		
			<rect x="228.5" y="83.8" transform="matrix(-8.681007e-02 -0.9962 0.9962 -8.681007e-02 -39.6775 544.963)" fill="#010202" width="2.8" height="413.8"/>
	</g>
	<g>
		
			<rect x="228.1" y="78.7" transform="matrix(-8.681007e-02 -0.9962 0.9962 -8.681007e-02 -35.0991 539.1239)" fill="#010202" width="2.8" height="413.9"/>
	</g>
	<g>
		
			<rect x="227.7" y="73.6" transform="matrix(-8.681007e-02 -0.9962 0.9962 -8.681007e-02 -30.5786 533.1238)" fill="#010202" width="2.8" height="413.9"/>
	</g>
	<g>
		
			<rect x="227.2" y="68.7" transform="matrix(-8.714948e-02 -0.9962 0.9962 -8.714948e-02 -26.0499 527.3675)" fill="#010202" width="2.8" height="413.8"/>
	</g>
	<g>
		
			<rect x="226.8" y="63.6" transform="matrix(-8.714948e-02 -0.9962 0.9962 -8.714948e-02 -21.4116 521.4557)" fill="#010202" width="2.8" height="413.8"/>
	</g>
	<g>
		
			<rect x="226.3" y="58.7" transform="matrix(-8.714948e-02 -0.9962 0.9962 -8.714948e-02 -16.9805 515.5699)" fill="#010202" width="2.8" height="413.8"/>
	</g>
	<g>
		
			<rect x="225.9" y="53.6" transform="matrix(-8.714948e-02 -0.9962 0.9962 -8.714948e-02 -12.4026 509.7292)" fill="#010202" width="2.8" height="413.9"/>
	</g>
	<g>
		
			<rect x="225.5" y="48.6" transform="matrix(-8.681007e-02 -0.9962 0.9962 -8.681007e-02 -7.9488 503.7379)" fill="#010202" width="2.8" height="413.9"/>
	</g>
	<g>
		
			<rect x="225" y="43.6" transform="matrix(-8.681007e-02 -0.9962 0.9962 -8.681007e-02 -3.4873 497.808)" fill="#010202" width="2.8" height="413.8"/>
	</g>
	<g>
		
			<rect x="224.6" y="38.5" transform="matrix(-8.681007e-02 -0.9962 0.9962 -8.681007e-02 1.1511 491.8976)" fill="#010202" width="2.8" height="413.8"/>
	</g>
	<g>
		
			<rect x="224.2" y="33.6" transform="matrix(-8.714948e-02 -0.9962 0.9962 -8.714948e-02 5.6492 486.1761)" fill="#010202" width="2.8" height="413.8"/>
	</g>
	<g>
		
			<rect x="223.7" y="28.5" transform="matrix(-8.714948e-02 -0.9962 0.9962 -8.714948e-02 10.1095 480.2457)" fill="#010202" width="2.8" height="413.9"/>
	</g>
	<g>
		
			<rect x="223.3" y="23.5" transform="matrix(-8.714948e-02 -0.9962 0.9962 -8.714948e-02 14.7479 474.3338)" fill="#010202" width="2.8" height="413.9"/>
	</g>
	<g>
		
			<rect x="222.9" y="18.5" transform="matrix(-8.681007e-02 -0.9962 0.9962 -8.681007e-02 19.143 468.422)" fill="#010202" width="2.8" height="413.8"/>
	</g>
	<g>
		
			<rect x="222.4" y="13.6" transform="matrix(-8.681007e-02 -0.9962 0.9962 -8.681007e-02 23.5742 462.5389)" fill="#010202" width="2.8" height="413.8"/>
	</g>
	<g>
		
			<rect x="222" y="8.4" transform="matrix(-8.681007e-02 -0.9962 0.9962 -8.681007e-02 28.242 456.5829)" fill="#010202" width="2.8" height="413.9"/>
	</g>
	<g>
		
			<rect x="221.5" y="3.5" transform="matrix(-8.714948e-02 -0.9962 0.9962 -8.714948e-02 32.7393 450.8521)" fill="#010202" width="2.8" height="413.9"/>
	</g>
	<g>
		
			<rect x="221.1" y="-1.5" transform="matrix(-8.714948e-02 -0.9962 0.9962 -8.714948e-02 37.3178 445.0113)" fill="#010202" width="2.8" height="413.8"/>
	</g>
	<g>
		
			<rect x="220.7" y="-6.6" transform="matrix(-8.714948e-02 -0.9962 0.9962 -8.714948e-02 41.8375 439.0096)" fill="#010202" width="2.8" height="413.8"/>
	</g>
	<g>
		
			<rect x="220.2" y="-11.5" transform="matrix(-8.714948e-02 -0.9962 0.9962 -8.714948e-02 46.2691 433.1246)" fill="#010202" width="2.8" height="413.8"/>
	</g>
	<g>
		
			<rect x="219.8" y="-16.7" transform="matrix(-8.681007e-02 -0.9962 0.9962 -8.681007e-02 50.8722 427.1964)" fill="#010202" width="2.8" height="413.9"/>
	</g>
	<g>
		
			<rect x="219.3" y="-21.6" transform="matrix(-8.681007e-02 -0.9962 0.9962 -8.681007e-02 55.3035 421.3127)" fill="#010202" width="2.8" height="413.9"/>
	</g>
	<g>
		
			<rect x="219" y="-26.6" transform="matrix(-8.681007e-02 -0.9962 0.9962 -8.681007e-02 59.881 415.4745)" fill="#010202" width="2.8" height="413.8"/>
	</g>
	<g>
		
			<rect x="218.5" y="-31.6" transform="matrix(-8.714948e-02 -0.9962 0.9962 -8.714948e-02 64.4673 409.6155)" fill="#010202" width="2.8" height="413.8"/>
	</g>
	<g>
		
			<rect x="218" y="-36.6" transform="matrix(-8.714948e-02 -0.9962 0.9962 -8.714948e-02 68.8988 403.7303)" fill="#010202" width="2.8" height="413.8"/>
	</g>
	<g>
		
			<rect x="217.6" y="-41.7" transform="matrix(-8.714948e-02 -0.9962 0.9962 -8.714948e-02 73.4761 397.8892)" fill="#010202" width="2.8" height="413.9"/>
	</g>
	<g>
		
			<rect x="217.1" y="-46.7" transform="matrix(-8.681007e-02 -0.9962 0.9962 -8.681007e-02 77.8158 391.8369)" fill="#010202" width="2.8" height="413.9"/>
	</g>
	<g>
		
			<rect x="216.7" y="-51.7" transform="matrix(-8.681007e-02 -0.9962 0.9962 -8.681007e-02 82.3942 385.9978)" fill="#010202" width="2.8" height="413.8"/>
	</g>
	<g>
		
			<rect x="216.3" y="-56.7" transform="matrix(-8.681007e-02 -0.9962 0.9962 -8.681007e-02 87.0322 380.087)" fill="#010202" width="2.8" height="413.8"/>
	</g>
	<g>
		
			<rect x="215.8" y="-61.7" transform="matrix(-8.681007e-02 -0.9962 0.9962 -8.681007e-02 91.4638 374.2034)" fill="#010202" width="2.8" height="413.8"/>
	</g>
	<g>
		
			<rect x="215.4" y="-66.7" transform="matrix(-8.714948e-02 -0.9962 0.9962 -8.714948e-02 95.9889 368.4057)" fill="#010202" width="2.8" height="413.9"/>
	</g>
	<g>
		
			<rect x="215" y="-71.8" transform="matrix(-8.714948e-02 -0.9962 0.9962 -8.714948e-02 100.6572 362.4485)" fill="#010202" width="2.8" height="413.8"/>
	</g>
	<g>
		
			<rect x="212.4" y="-101.8" transform="matrix(-8.714948e-02 -0.9962 0.9962 -8.714948e-02 127.7179 327.1695)" fill="#010202" width="2.8" height="413.8"/>
	</g>
	<g>
		
			<rect x="212.8" y="-96.8" transform="matrix(-8.714948e-02 -0.9962 0.9962 -8.714948e-02 123.1965 333.1713)" fill="#010202" width="2.8" height="413.8"/>
	</g>
	<g>
		
			<rect x="213.2" y="-91.8" transform="matrix(-8.681007e-02 -0.9962 0.9962 -8.681007e-02 118.5548 338.8885)" fill="#010202" width="2.8" height="413.9"/>
	</g>
	<g>
		
			<rect x="213.7" y="-86.9" transform="matrix(-8.681007e-02 -0.9962 0.9962 -8.681007e-02 114.1231 344.7727)" fill="#010202" width="2.8" height="413.9"/>
	</g>
	<g>
		
			<rect x="214.1" y="-81.8" transform="matrix(-8.681007e-02 -0.9962 0.9962 -8.681007e-02 109.5456 350.6113)" fill="#010202" width="2.8" height="413.8"/>
	</g>
	<g>
		
			<rect x="214.5" y="-76.8" transform="matrix(-8.714948e-02 -0.9962 0.9962 -8.714948e-02 105.0881 356.5632)" fill="#010202" width="2.8" height="413.8"/>
	</g>
	<g>
		
			<rect x="211.9" y="-106.9" transform="matrix(-8.714948e-02 -0.9962 0.9962 -8.714948e-02 132.2376 321.167)" fill="#010202" width="2.8" height="413.8"/>
	</g>
	<g>
		
			<rect x="211.4" y="-111.9" transform="matrix(-8.681007e-02 -0.9962 0.9962 -8.681007e-02 136.6364 315.2961)" fill="#010202" width="2.8" height="413.9"/>
	</g>
	<g>
		
			<rect x="210.7" y="-121.9" transform="matrix(-8.681007e-02 -0.9962 0.9962 -8.681007e-02 145.7631 303.6635)" fill="#010202" width="2.8" height="413.8"/>
	</g>
	<g>
		
			<rect x="211" y="-116.9" transform="matrix(-8.681007e-02 -0.9962 0.9962 -8.681007e-02 141.1851 309.5026)" fill="#010202" width="2.8" height="413.9"/>
	</g>
	<g>
		
			<rect x="210.2" y="-126.9" transform="matrix(-8.681007e-02 -0.9962 0.9962 -8.681007e-02 150.2836 297.6629)" fill="#010202" width="2.8" height="413.8"/>
	</g>
	<g>
		
			<rect x="209.7" y="-132" transform="matrix(-8.714948e-02 -0.9962 0.9962 -8.714948e-02 154.8673 291.7733)" fill="#010202" width="2.8" height="413.8"/>
	</g>
	<g>
		
			<rect x="209.2" y="-137" transform="matrix(-8.714948e-02 -0.9962 0.9962 -8.714948e-02 159.3293 285.8428)" fill="#010202" width="2.8" height="413.9"/>
	</g>
	<g>
		
			<rect x="208.8" y="-142" transform="matrix(-8.714948e-02 -0.9962 0.9962 -8.714948e-02 163.8763 280.0475)" fill="#010202" width="2.8" height="413.9"/>
	</g>
	<g>
		
			<rect x="208.4" y="-146.9" transform="matrix(-8.681007e-02 -0.9962 0.9962 -8.681007e-02 168.2755 274.1878)" fill="#010202" width="2.8" height="413.8"/>
	</g>
	<g>
		
			<rect x="207.9" y="-152" transform="matrix(-8.681007e-02 -0.9962 0.9962 -8.681007e-02 172.797 268.1867)" fill="#010202" width="2.8" height="413.8"/>
	</g>
	<g>
		
			<rect x="207.5" y="-157.1" transform="matrix(-8.681007e-02 -0.9962 0.9962 -8.681007e-02 177.3754 262.3476)" fill="#010202" width="2.8" height="413.9"/>
	</g>
	<g>
		
			<rect x="207.1" y="-162.1" transform="matrix(-8.714948e-02 -0.9962 0.9962 -8.714948e-02 181.9576 256.4492)" fill="#010202" width="2.8" height="413.9"/>
	</g>
	<g>
		
			<rect x="206.7" y="-167.1" transform="matrix(-8.714948e-02 -0.9962 0.9962 -8.714948e-02 186.5359 250.6084)" fill="#010202" width="2.8" height="413.8"/>
	</g>
	<g>
		
			<rect x="206.2" y="-172" transform="matrix(-8.714948e-02 -0.9962 0.9962 -8.714948e-02 190.9675 244.7232)" fill="#010202" width="2.8" height="413.8"/>
	</g>
	<g>
		
			<rect x="205.8" y="-177.1" transform="matrix(-8.681007e-02 -0.9962 0.9962 -8.681007e-02 195.4267 238.8009)" fill="#010202" width="2.8" height="413.8"/>
	</g>
	<g>
		
			<rect x="205.4" y="-182.1" transform="matrix(-8.681007e-02 -0.9962 0.9962 -8.681007e-02 200.0048 232.9616)" fill="#010202" width="2.8" height="413.9"/>
	</g>
	<g>
		
			<rect x="204.9" y="-187.2" transform="matrix(-8.681007e-02 -0.9962 0.9962 -8.681007e-02 204.5258 226.9615)" fill="#010202" width="2.8" height="413.9"/>
	</g>
</g>
</svg>
